HIERARCHY
ROOT Hips
{
	OFFSET 0.000000 0.000000 0.000000
	CHANNELS 6 Xposition Yposition Zposition Zrotation Yrotation Xrotation 
	JOINT LHipJoint
	{
		OFFSET 0.000000 0.000000 0.000000
		CHANNELS 3 Zrotation Yrotation Xrotation
		JOINT LeftUpLeg
		{
			OFFSET 1.363060 -1.794630 0.839290
			CHANNELS 3 Zrotation Yrotation Xrotation
			JOINT LeftLeg
			{
				OFFSET 2.448110 -6.726130 0.000000
				CHANNELS 3 Zrotation Yrotation Xrotation
				JOINT LeftFoot
				{
					OFFSET 2.562200 -7.039590 0.000000
					CHANNELS 3 Zrotation Yrotation Xrotation
					JOINT LeftToeBase
					{
						OFFSET 0.157640 -0.433110 2.322550
						CHANNELS 3 Zrotation Yrotation Xrotation
						End Site
						{
							OFFSET 0.000000 0.000000 0.000000
						}
					}
				}
			}
		}
	}
	JOINT RHipJoint
	{
		OFFSET 0.000000 0.000000 0.000000
		CHANNELS 3 Zrotation Yrotation Xrotation
		JOINT RightUpLeg
		{
			OFFSET -1.305520 -1.794630 0.839290
			CHANNELS 3 Zrotation Yrotation Xrotation
			JOINT RightLeg
			{
				OFFSET -2.542530 -6.985550 0.000000
				CHANNELS 3 Zrotation Yrotation Xrotation
				JOINT RightFoot
				{
					OFFSET -2.568260 -7.056230 0.000000
					CHANNELS 3 Zrotation Yrotation Xrotation
					JOINT RightToeBase
					{
						OFFSET -0.164730 -0.452590 2.363150
						CHANNELS 3 Zrotation Yrotation Xrotation
						End Site
						{
							OFFSET 0.000000 0.000000 0.000000
						}
					}
				}
			}
		}
	}
	JOINT LowerBack
	{
		OFFSET 0.000000 0.000000 0.000000
		CHANNELS 3 Zrotation Yrotation Xrotation
		JOINT Spine
		{
			OFFSET 0.028270 2.035590 -0.193380
			CHANNELS 3 Zrotation Yrotation Xrotation
			JOINT Spine1
			{
				OFFSET 0.056720 2.048850 -0.042750
				CHANNELS 3 Zrotation Yrotation Xrotation
				JOINT Neck
				{
					OFFSET 0.000000 0.000000 0.000000
					CHANNELS 3 Zrotation Yrotation Xrotation
					JOINT Neck1
					{
						OFFSET -0.054170 1.746240 0.172020
						CHANNELS 3 Zrotation Yrotation Xrotation
						JOINT Head
						{
							OFFSET 0.104070 1.761360 -0.123970
							CHANNELS 3 Zrotation Yrotation Xrotation
							End Site
							{
								OFFSET 0.000000 0.000000 0.000000
							}
						}
					}
				}
				JOINT LeftShoulder
				{
					OFFSET 0.000000 0.000000 0.000000
					CHANNELS 3 Zrotation Yrotation Xrotation
					JOINT LeftArm
					{
						OFFSET 3.362410 1.200890 -0.311210
						CHANNELS 3 Zrotation Yrotation Xrotation
						JOINT LeftForeArm
						{
							OFFSET 4.983000 -0.000000 -0.000000
							CHANNELS 3 Zrotation Yrotation Xrotation
							JOINT LeftHand
							{
								OFFSET 3.483560 -0.000000 -0.000000
								CHANNELS 3 Zrotation Yrotation Xrotation
								JOINT LeftFingerBase
								{
									OFFSET 0.000000 0.000000 0.000000
									CHANNELS 3 Zrotation Yrotation Xrotation
									JOINT LeftHandIndex1
									{
										OFFSET 0.715260 -0.000000 -0.000000
										CHANNELS 3 Zrotation Yrotation Xrotation
										End Site
										{
											OFFSET 0.000000 0.000000 0.000000
										}
									}
								}
								JOINT LThumb
								{
									OFFSET 0.000000 0.000000 0.000000
									CHANNELS 3 Zrotation Yrotation Xrotation
									End Site
									{
										OFFSET 0.000000 0.000000 0.000000
									}
								}
							}
						}
					}
				}
				JOINT RightShoulder
				{
					OFFSET 0.000000 0.000000 0.000000
					CHANNELS 3 Zrotation Yrotation Xrotation
					JOINT RightArm
					{
						OFFSET -3.136600 1.374050 -0.404650
						CHANNELS 3 Zrotation Yrotation Xrotation
						JOINT RightForeArm
						{
							OFFSET -5.241900 -0.000000 -0.000000
							CHANNELS 3 Zrotation Yrotation Xrotation
							JOINT RightHand
							{
								OFFSET -3.444170 -0.000000 -0.000000
								CHANNELS 3 Zrotation Yrotation Xrotation
								JOINT RightFingerBase
								{
									OFFSET 0.000000 0.000000 0.000000
									CHANNELS 3 Zrotation Yrotation Xrotation
									JOINT RightHandIndex1
									{
										OFFSET -0.622530 -0.000000 -0.000000
										CHANNELS 3 Zrotation Yrotation Xrotation
										End Site
										{
											OFFSET 0.000000 0.000000 0.000000
										}
									}
								}
								JOINT RThumb
								{
									OFFSET 0.000000 0.000000 0.000000
									CHANNELS 3 Zrotation Yrotation Xrotation
									End Site
									{
										OFFSET 0.000000 0.000000 0.000000
									}
								}
							}
						}
					}
				}
			}
		}
	}
}
MOTION
Frames: 7
Frame Time: 0.008333
2.078325 16.693980 2.784278 12.549725 -42.877716 18.278625 -7.620552 -0.327464 6.833963 -1.986614 -19.280462 -47.590917 -2.142898 -0.713109 11.627284 0.276659 5.203785 12.935507 2.692000 0.000001 -60.942100 13.621621 0.578652 -5.399875 -7.702484 -40.749973 -10.093663 2.186467 0.797358 -6.988249 -3.274590 -23.498286 16.069584 -10.702199 0.000000 -72.903400 -12.422778 2.272066 1.815450 -2.143583 3.031049 -3.563108 0.109281 3.028905 -4.965297 -2.380244 -0.088016 -2.495615 0.497173 -0.044991 1.244874 0.000000 0.000000 0.000000 3.388006 -2.288901 -8.395708 -113.252083 -55.884286 54.234225 178.526589 -80.843255 179.696538 15.919075 -20.089009 -3.020803 -0.004368 1.178359 -0.000000 0.000000 0.000000 0.000000 0.000000 0.000000 0.000000 -12.727184 8.253168 7.059328 -27.063560 28.073214 -50.520623 0.644028 8.204387 -0.100169 -20.703654 12.420125 -2.493570 0.710395 -0.731240 0.000000 0.000000 0.000000 0.000000 0.000000 0.000000 0.000000 
2.085668 16.672348 2.804255 12.207186 -42.675314 18.727528 -7.595147 -0.330591 6.961362 -1.496494 -19.648757 -48.230100 -2.032101 -0.685818 12.233169 0.338954 5.366435 12.366346 2.695500 0.000000 -60.974100 13.580263 0.546377 -5.403791 -7.322332 -40.527377 -10.142302 2.185587 0.830613 -6.984348 -3.338731 -23.911672 15.697700 -10.787300 0.000000 -72.616100 -12.274612 2.110205 1.685697 -2.033643 2.865987 -3.529850 0.451940 2.853190 -4.791181 -2.656163 -0.776972 -2.560929 0.835885 -0.021700 1.227750 0.000000 0.000000 0.000000 3.135427 -2.396124 -8.352704 -112.705218 -56.105262 53.745128 178.494853 -80.483985 179.697202 15.896169 -19.980460 -3.000265 -0.004122 1.176468 -0.000000 0.000000 0.000000 0.000000 0.000000 0.000000 0.000000 -14.798141 7.811780 6.950009 -24.163431 30.342801 -54.153312 0.416161 13.389753 -0.101725 -17.308485 13.007575 -2.181563 0.577454 -0.797559 0.000000 0.000000 0.000000 0.000000 0.000000 0.000000 0.000000 
2.095567 16.652535 2.828840 11.809226 -42.478000 19.226442 -7.581019 -0.320818 7.116304 -0.918244 -20.046831 -48.917545 -1.904723 -0.655789 12.844628 0.408318 5.546961 11.812612 2.702100 -0.000000 -61.001000 13.520971 0.501039 -5.397564 -6.868514 -40.255875 -10.193669 2.182327 0.876477 -7.033501 -3.437918 -24.408165 15.413026 -10.917699 0.000000 -72.258500 -12.036904 1.909812 1.492978 -1.934667 2.657795 -3.536689 0.677114 2.634331 -4.700448 -2.707904 -0.956988 -2.499175 1.055700 -0.008619 1.246687 0.000000 0.000000 0.000000 2.892351 -2.541866 -8.232361 -111.935548 -56.324327 53.084088 178.471797 -80.205540 179.696709 15.969502 -19.829015 -2.992881 -0.007811 1.177398 -0.000000 0.000000 0.000000 0.000000 0.000000 0.000000 0.000000 -16.095067 7.722137 6.802734 -21.864543 32.114678 -54.456116 0.371334 18.626530 -0.099826 -14.725932 12.149167 -1.736711 0.480684 -0.806854 0.000000 0.000000 0.000000 0.000000 0.000000 0.000000 0.000000 
2.107929 16.634311 2.855672 11.376559 -42.289733 19.748918 -7.571687 -0.302335 7.280824 -0.291769 -20.451509 -49.629296 -1.767623 -0.623487 13.468623 0.481175 5.736406 11.283135 2.710100 0.000001 -61.030700 13.456078 0.447657 -5.384022 -6.377991 -39.945923 -10.231723 2.174436 0.932083 -7.141855 -3.574303 -24.959667 15.213483 -11.074900 0.000000 -71.862500 -11.781450 1.693227 1.278356 -1.852784 2.432506 -3.571404 0.813481 2.399694 -4.686261 -2.588751 -0.812427 -2.351971 1.187576 -0.002974 1.289953 0.000000 0.000000 0.000000 2.731615 -2.749806 -8.064183 -111.135674 -56.506644 52.340931 178.457309 -80.036000 179.695210 16.097634 -19.687210 -2.997377 -0.012777 1.180073 -0.000000 0.000000 0.000000 0.000000 0.000000 0.000000 0.000000 -16.781386 7.838505 6.605239 -19.976662 33.551084 -53.710662 0.343775 23.671995 -0.098212 -13.014694 10.919934 -1.384159 0.412124 -0.795440 0.000000 0.000000 0.000000 0.000000 0.000000 0.000000 0.000000 
2.122420 16.617833 2.883006 10.933536 -42.118565 20.271651 -7.565469 -0.281926 7.438560 0.347615 -20.842947 -50.339742 -1.626633 -0.589913 14.099617 0.555263 5.932871 10.789286 2.720600 0.000000 -61.065100 13.389381 0.395106 -5.368935 -5.883077 -39.617672 -10.272283 2.164441 0.989574 -7.259677 -3.737597 -25.515451 15.065898 -11.227300 0.000000 -71.452500 -11.541806 1.477237 1.077372 -1.786379 2.208121 -3.621918 0.890361 2.167335 -4.738156 -2.375966 -0.550173 -2.151773 1.269065 -0.001701 1.348258 0.000000 0.000000 0.000000 2.653199 -3.006316 -7.868931 -110.422728 -56.651701 51.596551 178.449319 -79.978374 179.692821 16.262720 -19.574216 -3.012968 -0.017633 1.183546 -0.000000 0.000000 0.000000 0.000000 0.000000 0.000000 0.000000 -17.105340 8.007245 6.325688 -18.180951 34.908828 -53.070240 0.260331 28.447024 -0.099179 -12.061485 9.837735 -1.159734 0.363649 -0.782177 0.000000 0.000000 0.000000 0.000000 0.000000 0.000000 0.000000 
2.138392 16.603421 2.909619 10.495331 -41.961884 20.782540 -7.560963 -0.268415 7.576125 0.970194 -21.200734 -51.026746 -1.488074 -0.557245 14.728768 0.627427 6.130948 10.340684 2.733600 0.000000 -61.103500 13.310867 0.368076 -5.347573 -5.405884 -39.253235 -10.503412 2.157546 1.009802 -6.951202 -3.825693 -26.053285 14.698822 -11.369400 -0.000000 -71.057500 -11.332868 1.270977 0.909870 -1.734671 1.994064 -3.682538 0.920807 1.946497 -4.855457 -2.102383 -0.267980 -1.911296 1.319277 -0.003302 1.417799 0.000000 0.000000 0.000000 2.651944 -3.304305 -7.656042 -109.854769 -56.761142 50.900250 178.446563 -80.032649 179.689636 16.450550 -19.496572 -3.037666 -0.021599 1.187440 -0.000000 0.000000 0.000000 0.000000 0.000000 0.000000 0.000000 -17.195448 8.161314 5.943012 -16.244741 36.298273 -52.810174 0.111905 33.001773 -0.104855 -11.853525 9.047268 -1.051245 0.332203 -0.773650 0.000000 0.000000 0.000000 0.000000 0.000000 0.000000 0.000000 
2.155410 16.591347 2.935032 10.058738 -41.849780 21.288123 -7.563431 -0.261511 7.685396 1.558696 -21.485502 -51.687527 -1.354549 -0.524148 15.355134 0.694732 6.310297 9.936335 2.742400 -0.000000 -61.148000 13.234435 0.342682 -5.312462 -4.933366 -38.806697 -10.756044 2.137482 1.025623 -6.625560 -3.923427 -26.630835 14.372203 -11.544500 0.000000 -70.644700 -11.157692 1.087682 0.774380 -1.696831 1.803729 -3.752499 0.914258 1.750086 -5.036523 -1.789655 -0.004517 -1.637628 1.350068 -0.006868 1.496554 0.000000 0.000000 0.000000 2.710249 -3.623630 -7.430198 -109.455661 -56.839391 50.285468 178.447999 -80.191393 179.685800 16.643807 -19.456396 -3.068571 -0.024010 1.191597 -0.000000 0.000000 0.000000 0.000000 0.000000 0.000000 0.000000 -17.138819 8.281299 5.447802 -13.996271 37.759178 -52.923703 -0.088747 37.413139 -0.116106 -12.327252 8.629970 -1.044189 0.314059 -0.773074 0.000000 0.000000 0.000000 0.000000 0.000000 0.000000 0.000000 
